<?xml version="1.0" encoding="UTF-8"?>
<svg version="1.1" xmlns="http://www.w3.org/2000/svg" width="32" height="32">
<path d="M0 0 C4.61589892 2.24988784 8.16603312 5.11529975 10 10 C10.66071926 15.51623758 10.73198334 20.4234205 8.375 25.5 C3.80134327 30.3143755 0.6912538 32.25156236 -6 32.5 C-12.6912538 32.25156236 -15.80134327 30.3143755 -20.375 25.5 C-22.77303575 20.33499991 -22.75381535 15.5997712 -22 10 C-17.615499 0.55645938 -9.7611305 -1.71203074 0 0 Z " fill="#1B1B1A" transform="translate(22,0)"/>
<path d="M0 0 C1.5 2.1875 1.5 2.1875 1.25 4.4375 C1.0025 5.015 0.755 5.5925 0.5 6.1875 C-1.81 5.8575 -4.12 5.5275 -6.5 5.1875 C-5.695625 5.991875 -4.89125 6.79625 -4.0625 7.625 C-0.5 11.1875 -0.5 11.1875 -0.125 14.5625 C-0.5 18.1875 -0.5 18.1875 -2.5 20.125 C-6.52648559 21.55104698 -9.22836071 21.60088445 -13.5 21.1875 C-15.5 19.6875 -15.5 19.6875 -16.5 18.1875 C-12.875 15.1875 -12.875 15.1875 -9.5 15.1875 C-9.83 14.5275 -10.16 13.8675 -10.5 13.1875 C-12.81 13.5175 -15.12 13.8475 -17.5 14.1875 C-17.5 13.5275 -17.5 12.8675 -17.5 12.1875 C-18.82 12.5175 -20.14 12.8475 -21.5 13.1875 C-22.00537432 7.88106959 -20.80655751 5.32069688 -17.5 1.1875 C-12.30454649 -3.52087975 -5.90118356 -4.27835808 0 0 Z " fill="#030405" transform="translate(25.5,6.8125)"/>
<path d="M0 0 C0 1.65 0 3.3 0 5 C-1.60875 5.556875 -1.60875 5.556875 -3.25 6.125 C-7.28730637 7.86578189 -8.98426549 10.04605924 -11 14 C-11.79070548 17.23038842 -11.79070548 17.23038842 -12 20 C-11.34 20 -10.68 20 -10 20 C-10.33 21.32 -10.66 22.64 -11 24 C-12.32 24 -13.64 24 -15 24 C-17.09305576 19.81388848 -16.42364608 14.55867052 -16 10 C-12.80580058 3.12018587 -7.69585951 -0.732939 0 0 Z " fill="#519EDD" transform="translate(16,0)"/>
<path d="M0 0 C2.4375 0.8125 2.4375 0.8125 5 2 C5.33 2.99 5.66 3.98 6 5 C6.66 5 7.32 5 8 5 C9.20272819 7.40545638 9.10071472 8.94996953 9.0625 11.625 C9.05347656 12.44226562 9.04445313 13.25953125 9.03515625 14.1015625 C9.02355469 14.72804688 9.01195312 15.35453125 9 16 C8.67 16 8.34 16 8 16 C8 14.35 8 12.7 8 11 C7.34 11 6.68 11 6 11 C6 12.093125 6 13.18625 6 14.3125 C6 21 6 21 5 23 C4.34 22.67 3.68 22.34 3 22 C3.1546875 20.39125 3.1546875 20.39125 3.3125 18.75 C3.4132668 14.86024403 3.4132668 14.86024403 0.5 12.6875 C-0.325 12.130625 -1.15 11.57375 -2 11 C-2 10.34 -2 9.68 -2 9 C0.31 9 2.62 9 5 9 C4.60401298 6.12909413 4.2676157 5.21084873 1.9375 3.375 C1.298125 2.92125 0.65875 2.4675 0 2 C0 1.34 0 0.68 0 0 Z " fill="#243856" transform="translate(21,3)"/>
<path d="M0 0 C0.99 0 1.98 0 3 0 C3 0.66 3 1.32 3 2 C3.99 1.34 4.98 0.68 6 0 C8.6875 0.375 8.6875 0.375 11 1 C11 1.66 11 2.32 11 3 C9.02 3.99 7.04 4.98 5 6 C6.98635379 8.43442418 6.98635379 8.43442418 10.875 8.1875 C13.71460774 8.120382 16.28516905 7.90494365 19 7 C17.29284768 9.10883522 16.41235079 9.92871224 13.6953125 10.3984375 C4.31288344 10.31288344 4.31288344 10.31288344 1 7 C0.1875 3.3125 0.1875 3.3125 0 0 Z " fill="#515C6B" transform="translate(5,19)"/>
<path d="M0 0 C0 0.66 0 1.32 0 2 C0.66 2.33 1.32 2.66 2 3 C1.0925 3.37125 0.185 3.7425 -0.75 4.125 C-5.57827068 6.91054078 -7.71143707 11.04144698 -10 16 C-11.11329523 12.66011432 -11.01098929 10.3699643 -10 7 C-8.5625 4.6875 -8.5625 4.6875 -7 3 C-6.34 3 -5.68 3 -5 3 C-5 2.34 -5 1.68 -5 1 C-2 0 -2 0 0 0 Z " fill="#9DC2E0" transform="translate(13,2)"/>
<path d="M0 0 C-0.12568359 1.04800781 -0.12568359 1.04800781 -0.25390625 2.1171875 C-0.35574219 3.02726563 -0.45757813 3.93734375 -0.5625 4.875 C-0.66691406 5.77992187 -0.77132813 6.68484375 -0.87890625 7.6171875 C-1.19674852 10.01653057 -1.19674852 10.01653057 0 12 C-3.875 10.125 -3.875 10.125 -5 9 C-4.71269945 6.66055264 -4.38063221 4.3260857 -4 2 C-4.99 1.67 -5.98 1.34 -7 1 C-4.53721199 -0.231394 -2.7204945 -0.07159196 0 0 Z " fill="#162842" transform="translate(17,5)"/>
<path d="M0 0 C2.4375 0.8125 2.4375 0.8125 5 2 C5.33 2.99 5.66 3.98 6 5 C6.66 5 7.32 5 8 5 C9.20272819 7.40545638 9.10071472 8.94996953 9.0625 11.625 C9.05347656 12.44226562 9.04445313 13.25953125 9.03515625 14.1015625 C9.02355469 14.72804688 9.01195312 15.35453125 9 16 C8.67 16 8.34 16 8 16 C8 14.35 8 12.7 8 11 C7.01 10.67 6.02 10.34 5 10 C4.9175 9.236875 4.835 8.47375 4.75 7.6875 C3.84504809 4.44475565 2.71226652 3.83734184 0 2 C0 1.34 0 0.68 0 0 Z " fill="#706F70" transform="translate(21,3)"/>
<path d="M0 0 C2.35953094 2.35953094 2.49141413 3.77895617 3 7 C3.66 7 4.32 7 5 7 C4.67 8.32 4.34 9.64 4 11 C2.68 11 1.36 11 0 11 C0 7.37 0 3.74 0 0 Z " fill="#7BA9CE" transform="translate(1,13)"/>
<path d="M0 0 C0 1.65 0 3.3 0 5 C-0.99 4.67 -1.98 4.34 -3 4 C-3 3.34 -3 2.68 -3 2 C-3.99 2.33 -4.98 2.66 -6 3 C-6.66 2.34 -7.32 1.68 -8 1 C-5.29120665 -0.35439668 -2.99066732 -0.06501451 0 0 Z " fill="#60A1D6" transform="translate(16,0)"/>
<path d="M0 0 C0.99 0 1.98 0 3 0 C3 0.66 3 1.32 3 2 C4.65 1.34 6.3 0.68 8 0 C6.75 2 6.75 2 5 4 C3.68 4 2.36 4 1 4 C0.67 2.68 0.34 1.36 0 0 Z " fill="#152946" transform="translate(5,19)"/>
</svg>
